<?xml version="1.0" standalone="no"?>
<!DOCTYPE svg PUBLIC "-//W3C//DTD SVG 20010904//EN"
        "http://www.w3.org/TR/2001/REC-SVG-20010904/DTD/svg10.dtd">
<svg version="1.0" xmlns="http://www.w3.org/2000/svg"
     width="560.000000pt" height="560.000000pt" viewBox="0 0 560.000000 560.000000"
     preserveAspectRatio="xMidYMid meet">
    <metadata>
        Created by potrace 1.11, written by Peter Selinger 2001-2013
    </metadata>
    <g transform="translate(0.000000,560.000000) scale(0.100000,-0.100000)"
       fill="#000000" stroke="none">
        <path d="M38 4360 l-23 -6 -2 -429 c-1 -321 1 -432 10 -437 9 -6 9 -8 0 -8
-18 0 -18 -2209 0 -2212 54 -7 232 -10 989 -14 l866 -6 6 54 c3 29 5 231 5
448 -1 217 0 406 2 420 2 14 6 -182 9 -435 3 -253 8 -465 12 -472 6 -8 240
-11 915 -10 l908 2 5 80 5 80 8 -81 9 -82 229 0 c126 1 232 5 235 10 3 5 11 5
18 -1 7 -6 255 -9 676 -8 l665 2 1 1485 c0 817 -1 1515 -3 1553 l-5 67 -914 0
-915 0 2 -45 c2 -24 0 -47 -3 -50 -3 -3 -2 -21 2 -39 5 -24 4 -33 -6 -33 -7 0
-12 10 -11 21 0 12 0 49 -1 84 l-2 62 -915 0 -916 0 1 -47 c0 -27 1 -61 1 -78
1 -16 1 -37 0 -45 0 -8 -1 -38 -1 -67 0 -28 -3 -54 -7 -56 -10 -7 -10 104 0
121 5 6 4 12 -1 12 -6 0 -8 32 -6 76 3 66 2 76 -14 80 -25 7 -1807 10 -1834 4z
m166 -71 c-3 -5 -1 -16 6 -24 6 -8 7 -16 2 -19 -6 -3 -13 4 -17 17 l-7 22 -7
-25 -7 -25 -6 28 c-4 19 -1 27 8 27 8 0 14 5 14 11 0 5 5 7 10 4 6 -4 8 -11 4
-16z m-54 2 c0 -5 3 -18 7 -28 6 -17 6 -17 -10 -1 -19 18 -22 38 -7 38 6 0 10
-4 10 -9z m106 -28 c-11 -11 -17 4 -9 23 7 18 8 18 11 1 2 -10 1 -21 -2 -24z
m64 27 c0 -5 -4 -10 -10 -10 -5 0 -10 5 -10 10 0 6 5 10 10 10 6 0 10 -4 10
-10z m37 -12 c-3 -8 -6 -5 -6 6 -1 11 2 17 5 13 3 -3 4 -12 1 -19z m133 6 c0
-8 -6 -11 -15 -8 -8 4 -15 9 -15 13 0 4 7 8 15 8 8 0 15 -6 15 -13z m136 2 c9
-9 10 -17 4 -21 -5 -3 -10 -1 -10 5 0 6 -4 8 -10 5 -5 -3 -10 1 -10 9 0 20 7
20 26 2z m53 -31 c1 -5 -6 -2 -15 7 -10 9 -13 21 -8 29 5 9 9 8 15 -7 4 -10 8
-23 8 -29z m-560 2 c0 -21 -1 -21 -9 -2 -12 28 -12 37 0 30 6 -3 10 -16 9 -28z
m316 23 c3 -5 1 -10 -4 -10 -6 0 -11 5 -11 10 0 6 2 10 4 10 3 0 8 -4 11 -10z
m145 2 c0 -4 -5 -14 -10 -22 -7 -11 -10 -12 -10 -2 0 9 -7 11 -20 7 -12 -4
-20 -2 -20 5 0 6 -4 8 -10 5 -5 -3 -10 -2 -10 3 0 5 18 9 40 10 22 1 40 -1 40
-6z m225 -11 c-8 -14 -35 -14 -35 -1 0 5 7 7 15 4 8 -4 15 -1 15 7 0 7 3 10 6
6 3 -3 3 -10 -1 -16z m22 -3 c-3 -8 -6 -5 -6 6 -1 11 2 17 5 13 3 -3 4 -12 1
-19z m1208 -18 c-22 -42 -30 -43 -32 -2 -2 24 0 32 6 24 7 -11 9 -10 15 3 3 9
10 13 16 10 6 -4 5 -17 -5 -35z m84 13 c1 9 6 17 11 17 13 0 12 -11 -4 -32
-16 -22 -26 -13 -25 21 l1 26 8 -25 c5 -17 8 -19 9 -7z m72 0 c-12 -20 -14
-14 -5 12 4 9 9 14 11 11 3 -2 0 -13 -6 -23z m69 12 c5 3 10 -1 10 -9 0 -9 -4
-16 -9 -16 -5 0 -12 -8 -14 -17 -4 -14 -5 -12 -6 5 -1 12 -7 22 -16 22 -16 0
-20 12 -8 23 3 4 12 2 19 -4 7 -6 18 -8 24 -4z m27 -7 c-3 -8 -6 -5 -6 6 -1
11 2 17 5 13 3 -3 4 -12 1 -19z m691 -14 c-10 -10 -28 6 -28 24 0 15 1 15 17
-1 9 -9 14 -19 11 -23z m906 2 c-3 -14 -10 -26 -14 -26 -5 0 -10 -10 -13 -22
-2 -13 -4 -2 -4 25 -1 26 2 45 7 42 5 -3 12 0 15 6 11 17 16 3 9 -25z m87 9
c6 15 8 16 8 4 1 -9 -6 -22 -14 -29 -13 -11 -15 -8 -14 21 1 28 3 30 7 9 4
-23 5 -24 13 -5z m70 -2 c-8 -15 -10 -15 -11 -2 0 17 10 32 18 25 2 -3 -1 -13
-7 -23z m65 -20 c-10 -21 -11 -22 -14 -3 -2 11 -10 20 -18 20 -8 0 -14 4 -14
8 0 17 11 20 34 9 19 -9 21 -14 12 -34z m31 25 c-3 -8 -6 -5 -6 6 -1 11 2 17
5 13 3 -3 4 -12 1 -19z m687 -3 c9 -25 -11 -25 -22 0 -9 19 -8 23 3 19 7 -3
16 -12 19 -19z m-2737 -22 c-3 -10 -5 -4 -5 12 0 17 2 24 5 18 2 -7 2 -21 0
-30z m76 -3 c-5 -28 -8 -31 -13 -15 -4 11 -2 28 4 37 14 24 17 17 9 -22z m851
16 c-3 -9 -10 -16 -15 -16 -6 0 -5 9 1 21 13 24 24 20 14 -5z m83 2 c-3 -8 -6
-5 -6 6 -1 11 2 17 5 13 3 -3 4 -12 1 -19z m336 1 c5 -3 2 -9 -7 -12 -12 -5
-16 0 -16 15 0 12 3 17 8 12 4 -5 11 -12 15 -15z m578 -19 c-7 -32 -8 -33 -15
-12 -5 14 -3 29 5 38 16 20 19 15 10 -26z m845 3 c-11 -11 -17 4 -9 23 7 18 8
18 11 1 2 -10 1 -21 -2 -24z m427 16 c5 -3 2 -9 -7 -12 -12 -5 -16 0 -16 15 0
12 3 17 8 12 4 -5 11 -12 15 -15z m-5193 -19 c0 -19 5 -30 14 -30 8 0 18 -5
22 -12 5 -7 2 -9 -8 -5 -12 4 -14 1 -11 -13 3 -10 0 -21 -6 -24 -6 -4 -11 -2
-11 4 0 6 -4 9 -9 6 -5 -3 -8 19 -7 49 1 56 16 79 16 25z m1900 -8 c0 -7 -4
-10 -10 -7 -14 9 -13 -11 3 -35 10 -17 9 -22 -3 -30 -22 -14 -30 -12 -30 6 0
8 5 12 10 9 12 -8 12 -8 1 33 -6 20 -6 30 0 27 5 -4 9 4 9 17 0 18 2 20 10 8
5 -8 10 -21 10 -28z m74 14 c-3 -9 -10 -13 -16 -10 -5 3 -4 12 3 20 15 18 22
13 13 -10z m355 7 c0 -12 -2 -13 -6 -5 -4 10 -8 10 -19 1 -14 -11 -20 1 -7 14
13 13 33 7 32 -10z m61 7 c0 -5 -2 -10 -4 -10 -3 0 -8 5 -11 10 -3 6 -1 10 4
10 6 0 11 -4 11 -10z m118 -4 c-7 -8 -17 -12 -22 -9 -4 3 -2 9 5 14 22 13 31
11 17 -5z m78 -13 c-7 -7 -26 7 -26 19 0 6 6 6 15 -2 9 -7 13 -15 11 -17z m35
-16 c-8 -8 -11 -5 -11 9 0 27 14 41 18 19 2 -9 -1 -22 -7 -28z m79 22 c0 -14
-26 -11 -39 5 -9 11 -6 12 14 8 14 -2 25 -8 25 -13z m75 1 c-10 -11 -20 -18
-23 -15 -7 6 18 35 31 35 5 0 2 -9 -8 -20z m55 16 c0 -11 -19 -15 -25 -6 -3 5
1 10 9 10 9 0 16 -2 16 -4z m430 -23 c0 -13 -3 -13 -15 -3 -8 7 -15 16 -15 21
0 5 7 6 15 3 8 -4 15 -13 15 -21z m44 19 c3 -5 -1 -9 -9 -9 -8 0 -12 4 -9 9 3
4 7 8 9 8 2 0 6 -4 9 -8z m446 -30 c0 -7 -4 -10 -10 -7 -5 3 -10 16 -10 28 0
18 2 19 10 7 5 -8 10 -21 10 -28z m72 12 c-7 -12 -11 -13 -17 -4 -4 7 -2 16 6
21 18 11 23 4 11 -17z m357 9 c0 -12 -2 -13 -6 -5 -4 10 -8 10 -19 1 -14 -11
-20 1 -7 14 13 13 33 7 32 -10z m56 7 c3 -5 1 -10 -4 -10 -6 0 -11 5 -11 10 0
6 2 10 4 10 3 0 8 -4 11 -10z m125 0 c-8 -5 -19 -10 -25 -10 -5 0 -3 5 5 10 8
5 20 10 25 10 6 0 3 -5 -5 -10z m76 -17 c-7 -7 -26 7 -26 19 0 6 6 6 15 -2 9
-7 13 -15 11 -17z m42 5 c-2 -12 -8 -23 -14 -25 -7 -2 -10 6 -7 22 6 30 26 34
21 3z m72 1 c0 -14 -37 -10 -43 4 -4 10 2 13 19 9 13 -2 24 -8 24 -13z m80 12
c0 -5 -7 -14 -15 -21 -16 -14 -18 -10 -9 14 6 17 24 22 24 7z m50 5 c0 -11
-19 -15 -25 -6 -3 5 1 10 9 10 9 0 16 -2 16 -4z m430 -23 c0 -13 -3 -13 -15
-3 -8 7 -15 16 -15 21 0 5 7 6 15 3 8 -4 15 -13 15 -21z m-4103 -5 c-3 -8 -6
-5 -6 6 -1 11 2 17 5 13 3 -3 4 -12 1 -19z m25 0 c-7 -7 -12 -8 -12 -2 0 14
12 26 19 19 2 -3 -1 -11 -7 -17z m98 2 c0 -5 -4 -10 -10 -10 -5 0 -10 5 -10
10 0 6 5 10 10 10 6 0 10 -4 10 -10z m987 -12 c-3 -8 -6 -5 -6 6 -1 11 2 17 5
13 3 -3 4 -12 1 -19z m1733 7 c0 -8 -4 -15 -10 -15 -5 0 -7 7 -4 15 4 8 8 15
10 15 2 0 4 -7 4 -15z m117 -7 c-3 -8 -6 -5 -6 6 -1 11 2 17 5 13 3 -3 4 -12
1 -19z m-217 -57 c0 -8 -23 -21 -36 -21 -2 0 -4 7 -4 16 0 8 5 12 11 8 8 -4 9
1 4 17 -4 13 -10 31 -12 39 -3 8 4 0 16 -18 12 -18 21 -36 21 -41z m-1854 -58
c1 -16 4 -40 8 -54 5 -21 2 -28 -14 -32 -22 -6 -25 0 -11 22 6 9 5 24 0 39
-10 26 -6 52 8 52 4 0 9 -12 9 -27z m1850 0 c1 -16 4 -40 8 -54 4 -20 2 -28
-12 -31 -15 -4 -17 2 -16 46 1 62 2 66 12 66 4 0 8 -12 8 -27z m-3722 2 c3 -9
-3 -19 -16 -26 -18 -10 -20 -9 -15 6 4 9 7 21 7 26 0 15 17 10 24 -6z m5306
-25 c0 -5 -5 -10 -11 -10 -5 0 -7 5 -4 10 3 6 8 10 11 10 2 0 4 -4 4 -10z
m-5330 -104 c-7 -7 -10 4 -9 30 1 39 1 39 10 9 5 -18 5 -33 -1 -39z m1807 22
c-3 -7 -5 -2 -5 12 0 14 2 19 5 13 2 -7 2 -19 0 -25z m95 -63 c-3 -19 0 -25
14 -25 15 -1 12 -4 -9 -16 -34 -18 -43 -13 -28 14 6 12 11 30 11 42 0 12 4 19
9 16 4 -3 6 -17 3 -31z m1848 4 c-9 -16 -7 -21 10 -27 21 -8 21 -8 -5 -20 -15
-7 -29 -11 -31 -10 -7 8 19 87 27 82 5 -3 4 -14 -1 -25z m-2778 -17 c19 -19
23 -35 25 -100 5 -136 12 -236 19 -269 4 -23 3 -33 -5 -33 -8 0 -10 -8 -5 -22
4 -13 9 -102 10 -198 2 -96 3 -186 3 -200 1 -14 1 -110 1 -215 0 -104 3 -197
5 -206 3 -10 1 -20 -5 -24 -6 -3 -7 -11 -4 -17 6 -10 6 -170 0 -482 -2 -119
-1 -124 36 -130 7 -1 18 -5 25 -9 6 -4 14 -3 18 3 4 6 11 7 17 4 6 -4 56 -9
112 -11 55 -2 103 -9 107 -14 4 -6 9 -4 12 5 10 25 36 19 49 -11 7 -17 12 -85
12 -166 1 -126 -1 -140 -18 -153 -24 -17 -66 -18 -66 -1 0 6 -5 4 -11 -6 -6
-10 -15 -14 -22 -10 -7 5 -28 9 -47 10 -19 1 -42 3 -50 4 -8 1 -49 0 -90 -1
-41 0 -85 1 -97 4 -13 3 -23 1 -23 -4 0 -6 -9 -6 -22 -1 -13 4 -29 6 -35 4 -7
-3 -14 4 -14 14 -1 16 -2 16 -6 1 -4 -15 -16 -17 -96 -13 -51 2 -119 7 -152
11 -33 3 -77 6 -97 6 -29 -1 -38 3 -38 15 0 16 -1 16 -12 1 -10 -13 -36 -18
-115 -21 l-103 -4 -11 41 c-5 23 -16 63 -24 90 -12 43 -12 52 5 91 10 23 18
49 18 56 -3 48 2 58 30 58 15 0 45 3 67 6 22 4 89 8 149 10 68 3 112 9 117 16
17 28 15 934 -3 945 -4 3 -3 15 1 27 8 21 6 165 -3 174 -2 2 -20 7 -41 10 -26
4 -40 2 -46 -8 -7 -11 -9 -11 -9 3 0 13 -11 18 -47 20 l-48 3 -1 203 c-2 230
-7 218 87 229 36 4 59 14 81 34 16 16 34 29 39 29 5 0 9 6 9 13 0 7 9 18 20
25 26 16 38 47 45 114 3 30 13 58 21 65 10 7 51 11 109 10 84 -2 97 -5 117
-25z m-952 -2 c-7 -4 -9 -13 -6 -19 4 -6 2 -11 -4 -11 -7 0 -9 -7 -6 -16 3 -8
2 -12 -4 -9 -12 8 -9 58 4 67 6 4 14 4 19 1 5 -3 4 -9 -3 -13z m1787 -27 c-3
-10 -5 -4 -5 12 0 17 2 24 5 18 2 -7 2 -21 0 -30z m1283 25 c23 -4 26 -10 31
-69 4 -35 6 -97 4 -136 -2 -40 1 -75 6 -78 4 -3 3 -18 -3 -33 -6 -15 -10 -81
-8 -152 1 -69 1 -134 0 -145 0 -11 -1 -105 -1 -210 1 -225 1 -206 -4 -275 -7
-112 -7 -147 0 -239 6 -84 9 -96 33 -117 18 -15 40 -23 64 -24 47 0 53 -12 63
-120 15 -177 14 -201 -6 -221 -21 -21 -49 -25 -49 -8 0 6 -5 7 -12 2 -7 -4
-19 -8 -26 -9 -30 -5 -40 -24 -32 -59 4 -19 4 -37 -1 -40 -4 -3 -7 -44 -6 -91
1 -47 0 -87 -4 -89 -3 -2 -5 -30 -4 -62 3 -74 0 -80 -42 -94 -38 -12 -271 -5
-284 9 -8 7 -19 157 -24 305 -2 49 -7 93 -13 99 -6 6 -65 12 -133 14 -68 3
-128 9 -136 15 -9 8 -14 8 -18 -2 -6 -17 -215 -22 -215 -5 0 6 -4 6 -11 -1 -6
-6 -17 -9 -24 -7 -7 3 -16 1 -19 -5 -4 -6 -17 -4 -34 5 -27 13 -28 16 -31 106
-4 135 -3 170 3 298 4 63 7 124 7 135 1 39 22 105 33 105 6 0 13 12 14 26 1
15 8 32 15 38 8 6 20 27 27 46 24 66 35 90 41 90 4 0 17 27 29 60 12 33 27 63
31 66 5 3 9 13 9 22 0 9 9 28 20 42 11 14 20 30 20 37 0 7 11 37 25 67 14 30
25 60 25 65 0 6 4 11 8 11 4 0 14 21 21 46 8 25 25 69 39 98 14 28 25 57 23
64 -1 6 2 12 6 12 9 0 29 42 39 83 3 15 12 27 19 27 8 0 11 11 9 30 -3 21 1
33 11 36 8 4 15 15 15 25 0 10 5 19 11 19 5 0 7 5 4 10 -4 6 -1 17 5 25 7 8 9
15 5 15 -5 0 -1 8 8 18 8 9 19 29 22 45 4 15 11 27 16 27 5 0 9 9 9 20 0 10 8
23 18 29 16 9 294 8 352 -1z m1850 0 c23 -3 25 -8 31 -68 3 -36 4 -108 2 -160
-8 -316 -9 -767 -2 -782 6 -12 6 -25 -1 -37 -9 -18 -13 -198 -5 -281 1 -19 3
-51 4 -70 1 -28 8 -40 34 -57 18 -13 47 -23 65 -23 20 0 35 -6 40 -17 11 -21
27 -219 23 -278 -3 -43 -36 -81 -57 -65 -13 12 -54 4 -71 -13 -9 -9 -10 -21
-4 -44 5 -18 5 -33 1 -35 -8 -3 -16 -137 -10 -163 1 -5 1 -14 0 -20 -2 -5 -4
-26 -5 -45 -1 -19 -3 -49 -3 -67 -3 -47 -44 -57 -195 -49 -67 3 -124 9 -128
14 -8 8 -19 139 -24 294 -2 65 -8 102 -17 110 -8 9 -53 14 -132 16 -66 1 -125
7 -131 12 -9 7 -16 5 -25 -5 -10 -12 -16 -13 -26 -4 -8 6 -14 7 -14 2 0 -5
-38 -9 -85 -9 -47 1 -85 5 -85 10 0 5 -6 3 -13 -3 -8 -6 -17 -8 -20 -4 -4 3
-13 0 -21 -6 -10 -8 -16 -9 -21 -1 -3 5 -15 10 -26 10 -18 0 -20 6 -18 38 2
21 0 42 -3 48 -4 5 -3 16 1 23 4 6 5 33 0 59 -4 26 -5 70 -3 97 6 61 15 240
14 275 0 37 22 100 34 100 7 0 13 12 14 28 1 15 8 32 15 37 7 6 19 26 26 45
28 72 36 90 43 90 3 0 12 17 19 38 6 20 32 80 56 132 89 191 123 268 123 280
0 10 5 21 34 77 9 17 16 38 16 47 0 9 4 16 9 16 9 0 20 28 28 70 2 14 10 30
18 36 8 6 15 23 15 38 0 15 7 29 15 32 8 4 15 15 15 25 0 10 5 19 11 19 5 0 7
4 4 10 -5 8 65 167 82 183 6 7 300 3 353 -5z m-1432 -46 c-11 -2 -15 -9 -11
-20 6 -15 5 -15 -10 -3 -16 13 -16 14 0 26 10 7 22 10 28 7 6 -4 2 -8 -7 -10z
m1845 1 c-7 -2 -9 -12 -6 -21 6 -15 5 -15 -10 -3 -16 13 -16 14 0 26 10 8 20
11 23 8 3 -3 0 -8 -7 -10z m-3448 -13 c-4 -6 -2 -17 4 -24 9 -10 8 -15 -5 -20
-15 -6 -15 -8 1 -26 12 -14 14 -20 5 -20 -10 0 -10 -3 0 -15 10 -12 10 -15 0
-15 -7 0 -10 -6 -7 -12 3 -7 8 -21 12 -30 4 -11 3 -18 -4 -18 -6 0 -11 7 -11
16 0 8 -4 12 -10 9 -6 -4 -9 13 -7 44 2 28 0 51 -4 51 -6 0 -4 23 7 58 2 6 8
12 14 12 6 0 8 -5 5 -10z m1850 0 c-4 -6 -2 -17 4 -24 9 -10 8 -15 -5 -20 -15
-6 -15 -8 1 -26 12 -14 14 -20 5 -20 -10 0 -10 -3 0 -15 10 -12 10 -15 0 -15
-7 0 -10 -6 -7 -12 3 -7 8 -21 12 -30 4 -11 3 -18 -4 -18 -6 0 -11 7 -11 15 0
8 -6 14 -12 13 -7 -2 -11 4 -9 12 7 27 7 80 0 80 -6 0 -4 24 7 58 2 6 8 12 14
12 6 0 8 -5 5 -10z m-3745 -31 c0 -5 -4 -9 -10 -9 -5 0 -10 7 -10 16 0 8 5 12
10 9 6 -3 10 -10 10 -16z m1797 -26 c-3 -10 -5 -4 -5 12 0 17 2 24 5 18 2 -7
2 -21 0 -30z m1663 11 c0 -14 5 -34 10 -45 14 -24 -1 -25 -22 0 -9 11 -14 29
-11 45 7 33 23 34 23 0z m1848 1 c0 -13 -7 -30 -16 -37 -13 -11 -15 -10 -9 12
4 14 7 31 7 38 0 6 4 12 9 12 5 0 9 -11 9 -25z m-5301 -27 c-3 -8 -6 -5 -6 6
-1 11 2 17 5 13 3 -3 4 -12 1 -19z m5313 -36 c0 -15 -2 -15 -10 -2 -13 20 -13
33 0 25 6 -3 10 -14 10 -23z m-5323 -39 c-3 -10 -5 -4 -5 12 0 17 2 24 5 18 2
-7 2 -21 0 -30z m1800 -5 c-3 -7 -5 -2 -5 12 0 14 2 19 5 13 2 -7 2 -19 0 -25z
m1666 10 c-11 -18 -10 -32 2 -40 6 -5 5 -12 -5 -19 -11 -7 -12 -12 -3 -15 7
-3 9 -12 6 -20 -3 -9 2 -14 13 -15 12 0 7 -4 -10 -10 -17 -4 -31 -7 -32 -6 -2
1 1 20 6 42 5 24 5 46 -1 57 -12 22 -4 38 17 38 10 0 12 -5 7 -12z m1857 2 c0
-5 -4 -10 -10 -10 -5 0 -9 -5 -7 -11 1 -6 -3 -13 -8 -15 -6 -2 -12 7 -13 21
-1 19 3 25 18 25 11 0 20 -4 20 -10z m-3717 -27 c-7 -2 -19 -2 -25 0 -7 3 -2
5 12 5 14 0 19 -2 13 -5z m3717 -22 c0 -5 -6 -12 -12 -14 -10 -4 -10 -8 1 -15
11 -8 11 -11 0 -17 -9 -6 -8 -10 6 -15 17 -6 15 -8 -8 -12 -27 -5 -27 -4 -21
31 4 20 9 39 11 44 6 10 23 9 23 -2z m-3730 -33 c0 -13 -4 -29 -9 -37 -6 -10
-9 -2 -8 22 1 39 17 53 17 15z m300 7 c-7 -9 -15 -13 -17 -11 -7 7 7 26 19 26
6 0 6 -6 -2 -15z m1850 0 c-7 -9 -15 -13 -17 -11 -7 7 7 26 19 26 6 0 6 -6 -2
-15z m-3734 -30 c2 -33 -11 -33 -14 0 -1 14 2 25 6 25 4 0 8 -11 8 -25z m1796
-5 c3 -17 1 -33 -4 -36 -4 -3 -8 11 -8 30 0 44 6 47 12 6z m88 -15 c0 -8 5
-15 10 -15 6 0 10 -4 10 -10 0 -5 -7 -10 -17 -10 -14 0 -14 -2 3 -21 16 -17
16 -22 4 -29 -24 -15 -25 -13 -26 45 0 30 4 55 8 55 4 0 8 -7 8 -15z m1850 0
c0 -8 5 -15 10 -15 6 0 10 -4 10 -10 0 -5 -7 -10 -17 -10 -14 0 -14 -2 3 -21
16 -17 16 -22 4 -29 -25 -16 -28 -12 -25 35 2 25 -1 45 -6 45 -6 0 -7 5 -4 10
9 15 25 12 25 -5z m-2150 -25 c0 -5 -4 -10 -10 -10 -5 0 -10 5 -10 10 0 6 5
10 10 10 6 0 10 -4 10 -10z m1887 4 c-3 -3 -12 -4 -19 -1 -8 3 -5 6 6 6 11 1
17 -2 13 -5z m1850 0 c-3 -3 -12 -4 -19 -1 -8 3 -5 6 6 6 11 1 17 -2 13 -5z
m-1857 -39 c14 -16 10 -18 -14 -9 -9 3 -16 10 -16 15 0 14 16 11 30 -6z m1850
0 c14 -16 10 -18 -14 -9 -9 3 -16 10 -16 15 0 14 16 11 30 -6z m-3523 -27 c-3
-7 -5 -2 -5 12 0 14 2 19 5 13 2 -7 2 -19 0 -25z m-1750 -2 c4 -4 -3 -6 -17
-4 -14 2 -25 -2 -25 -9 0 -6 -3 -15 -7 -19 -5 -4 -8 -1 -8 7 0 30 36 46 57 25z
m3450 -12 c-3 -3 -12 -4 -19 -1 -8 3 -5 6 6 6 11 1 17 -2 13 -5z m1850 0 c-3
-3 -12 -4 -19 -1 -8 3 -5 6 6 6 11 1 17 -2 13 -5z m-3752 -26 c-1 -13 -3 -31
-4 -40 -2 -25 -16 -22 -18 4 -2 19 12 58 21 58 2 0 2 -10 1 -22z m1885 -20 c0
-5 -4 -6 -10 -3 -17 11 -32 -5 -19 -21 7 -8 7 -14 1 -14 -15 0 -23 28 -16 56
6 24 7 24 25 8 11 -9 19 -21 19 -26z m1850 -3 c0 -3 -4 -3 -10 0 -17 11 -32
-5 -19 -21 7 -8 7 -14 1 -14 -15 0 -23 28 -16 56 6 25 6 25 25 5 11 -11 19
-23 19 -26z m-3539 12 c-10 -9 -11 -8 -5 6 3 10 9 15 12 12 3 -3 0 -11 -7 -18z
m1966 -14 c-2 -10 -9 -29 -16 -42 -12 -21 -11 -23 2 -18 11 4 14 2 10 -9 -3
-7 -11 -14 -18 -14 -26 0 -3 98 22 100 2 0 2 -8 0 -17z m-1847 -7 c0 -8 -4
-18 -10 -21 -5 -3 -10 -13 -10 -21 0 -8 4 -12 10 -9 6 3 7 -1 4 -9 -9 -24 -32
-19 -29 7 1 12 3 32 4 45 1 24 31 32 31 8z m-113 -28 c-3 -7 -5 -2 -5 12 0 14
2 19 5 13 2 -7 2 -19 0 -25z m-1782 12 c3 -5 1 -10 -4 -10 -6 0 -11 5 -11 10
0 6 2 10 4 10 3 0 8 -4 11 -10z m-18 -62 c-3 -8 -6 -5 -6 6 -1 11 2 17 5 13 3
-3 4 -12 1 -19z m1802 -15 c0 -33 -1 -35 -9 -15 -8 20 -4 52 6 52 2 0 4 -17 3
-37z m3504 -42 c-9 -13 -17 21 -13 54 2 12 5 6 9 -15 4 -19 6 -37 4 -39z
m-1849 27 c7 -30 -9 -40 -16 -10 -4 16 1 47 7 40 1 -2 5 -15 9 -30z m-1551 -2
c3 -8 0 -19 -7 -25 -11 -9 -15 -6 -18 14 -6 27 16 36 25 11z m1846 0 c9 -10 8
-16 -4 -26 -8 -7 -15 -11 -16 -9 -10 45 -1 60 20 35z m-304 -46 c3 -5 1 -10
-4 -10 -6 0 -11 5 -11 10 0 6 2 10 4 10 3 0 8 -4 11 -10z m1850 0 c3 -5 1 -10
-4 -10 -6 0 -11 5 -11 10 0 6 2 10 4 10 3 0 8 -4 11 -10z m-3691 -15 c-4 -8
-11 -12 -16 -9 -6 4 -5 10 3 15 19 12 19 11 13 -6z m193 -33 c2 -33 1 -34 -8
-13 -8 21 -6 51 3 51 2 0 4 -17 5 -38z m113 9 c0 -5 -7 -11 -15 -15 -9 -3 -12
-12 -8 -23 5 -14 3 -15 -6 -7 -10 9 -10 17 -2 33 12 21 31 29 31 12z m1543
-57 c-6 -16 -23 -19 -23 -4 0 6 4 10 8 10 5 0 7 15 5 33 l-3 32 9 -28 c6 -16
7 -35 4 -43z m307 57 c0 -5 -7 -12 -16 -15 -8 -3 -13 -10 -9 -15 3 -5 1 -12
-5 -16 -11 -7 -12 0 -4 33 6 21 34 32 34 13z m1542 -13 c5 -28 -1 -58 -10 -58
-4 0 -7 18 -7 40 0 43 10 54 17 18z m-3682 -18 c0 -5 -4 -10 -10 -10 -5 0 -10
5 -10 10 0 6 5 10 10 10 6 0 10 -4 10 -10z m177 -66 c1 -25 -2 -33 -9 -26 -9
9 -4 62 5 62 2 0 3 -16 4 -36z m1657 -6 c-1 -13 -3 -30 -3 -38 -1 -12 -4 -12
-12 2 -7 12 -6 24 1 38 14 26 17 25 14 -2z m1850 0 c-1 -13 -3 -30 -3 -37 -1
-11 -4 -12 -12 -4 -11 11 -2 63 10 63 4 0 7 -10 5 -22z m-3394 2 c8 -5 11 -12
7 -17 -5 -4 -13 -1 -18 7 -7 11 -8 3 -4 -26 5 -33 3 -41 -10 -41 -10 0 -14 6
-10 14 3 8 5 28 5 44 0 31 6 34 30 19z m1850 0 c8 -5 11 -12 7 -17 -5 -4 -13
-1 -18 7 -7 11 -9 3 -5 -26 4 -32 2 -41 -10 -41 -9 0 -13 6 -9 14 3 8 5 28 5
44 0 31 6 34 30 19z m-2170 -30 c0 -5 -2 -10 -4 -10 -3 0 -8 5 -11 10 -3 6 -1
10 4 10 6 0 11 -4 11 -10z m10 -34 c0 -8 -4 -17 -8 -20 -4 -2 -8 4 -8 15 0 10
4 19 8 19 4 0 8 -6 8 -14z m1870 -6 c0 -5 -7 -10 -15 -10 -8 0 -12 -6 -9 -14
3 -8 1 -16 -4 -20 -10 -6 -9 24 2 42 9 14 26 16 26 2z m1838 -8 c-9 -2 -15 -9
-12 -17 3 -7 1 -16 -5 -20 -7 -4 -10 1 -8 12 4 28 17 44 30 36 8 -5 7 -9 -5
-11z m-3509 -47 l0 -20 -9 20 c-5 11 -9 27 -9 35 -1 13 0 13 9 0 5 -8 9 -24 9
-35z m-209 6 c0 -6 -4 -13 -10 -16 -5 -3 -10 1 -10 9 0 9 5 16 10 16 6 0 10
-4 10 -9z m302 -21 c3 -16 1 -30 -4 -30 -4 0 -8 3 -9 8 0 4 -2 17 -3 30 -4 33
11 27 16 -8z m1850 0 c3 -16 1 -30 -4 -30 -8 0 -9 2 -13 38 -3 33 12 27 17 -8z
m-1944 -57 c0 -39 -1 -44 -9 -25 -7 20 -3 72 6 72 1 0 3 -21 3 -47z m1657 12
c0 -28 -10 -33 -19 -9 -10 26 -7 44 7 39 6 -3 12 -16 12 -30z m1850 0 c0 -28
-10 -33 -19 -9 -10 26 -7 44 7 39 6 -3 12 -16 12 -30z m-3405 -25 c-6 -11 -15
-20 -20 -20 -14 0 -12 6 6 24 21 22 27 20 14 -4z m1847 -5 c-4 -8 -11 -15 -17
-15 -14 0 -13 27 3 33 16 6 21 1 14 -18z m-2164 -10 c4 -8 2 -17 -3 -20 -6 -4
-10 3 -10 14 0 25 6 27 13 6z m1862 -35 c0 -16 -3 -30 -7 -30 -5 0 -8 14 -8
30 0 17 4 30 8 30 4 0 8 -13 7 -30z m1850 0 c0 -18 -5 -30 -14 -30 -8 0 -11 6
-7 16 3 9 6 22 6 30 0 8 4 14 8 14 4 0 8 -13 7 -30z m-3391 11 c3 -5 -3 -11
-15 -14 -16 -4 -18 -3 -8 9 13 16 16 17 23 5z m1850 0 c3 -5 -3 -11 -15 -14
-16 -4 -18 -3 -8 9 13 16 16 17 23 5z m-2156 -46 c-3 -3 -9 2 -12 12 -6 14 -5
15 5 6 7 -7 10 -15 7 -18z m1882 15 c0 -5 -2 -10 -4 -10 -3 0 -8 5 -11 10 -3
6 -1 10 4 10 6 0 11 -4 11 -10z m1850 0 c0 -5 -2 -10 -4 -10 -3 0 -8 5 -11 10
-3 6 -1 10 4 10 6 0 11 -4 11 -10z m-3530 -59 c0 -45 -6 -37 -13 18 -4 29 -2
40 4 30 5 -7 9 -29 9 -48z m1953 -3 c-2 -5 -8 -8 -12 -8 -10 0 -21 47 -13 55
7 6 30 -38 25 -47z m-285 30 c-16 -5 -28 -14 -28 -20 0 -6 7 -8 15 -4 8 3 15
1 15 -4 0 -6 -7 -10 -15 -10 -8 0 -15 -5 -15 -11 0 -6 9 -8 20 -4 11 4 20 2
20 -4 0 -6 -5 -11 -11 -11 -8 0 -8 -4 0 -14 9 -11 9 -15 -1 -19 -10 -4 -10 -8
2 -16 10 -7 11 -11 3 -11 -7 0 -12 -5 -10 -11 1 -6 -3 -13 -9 -16 -16 -6 -26
27 -13 43 8 10 7 19 -4 34 -25 35 -2 91 37 89 18 0 17 -2 -6 -11z m1850 0
c-16 -5 -28 -14 -28 -20 0 -6 7 -8 15 -4 8 3 15 1 15 -4 0 -6 -7 -10 -15 -10
-8 0 -15 -5 -15 -11 0 -6 9 -8 20 -4 21 7 28 -10 8 -18 -10 -4 -9 -8 2 -16 10
-7 11 -11 3 -11 -8 0 -11 -9 -9 -22 2 -13 -1 -29 -6 -35 -6 -7 -7 -13 -4 -13
4 0 1 -7 -8 -15 -19 -19 -32 -20 -16 0 7 8 10 25 7 37 -4 12 -1 28 4 35 8 9 6
19 -5 34 -10 14 -13 32 -9 48 7 30 20 41 48 40 16 0 14 -3 -7 -11z m-3410 -26
c2 -7 -3 -12 -12 -12 -9 0 -16 7 -16 16 0 17 22 14 28 -4z m-1902 -39 c-10
-10 -19 5 -10 18 6 11 8 11 12 0 2 -7 1 -15 -2 -18z m1794 -35 c0 -19 -2 -20
-10 -8 -13 19 -13 30 0 30 6 0 10 -10 10 -22z m100 12 c0 -5 7 -10 15 -10 26
0 16 -15 -10 -16 -18 -2 -25 3 -25 17 0 10 5 19 10 19 6 0 10 -4 10 -10z
m1850 0 c0 -5 7 -10 15 -10 26 0 16 -15 -10 -16 -18 -2 -25 3 -25 17 0 10 5
19 10 19 6 0 10 -4 10 -10z m-1953 -72 c-3 -8 -6 -5 -6 6 -1 11 2 17 5 13 3
-3 4 -12 1 -19z m103 12 c0 -5 -4 -10 -10 -10 -5 0 -10 5 -10 10 0 6 5 10 10
10 6 0 10 -4 10 -10z m1850 0 c0 -5 -4 -10 -10 -10 -5 0 -10 5 -10 10 0 6 5
10 10 10 6 0 10 -4 10 -10z m-3740 -9 c0 -6 -4 -13 -10 -16 -5 -3 -10 1 -10 9
0 9 5 16 10 16 6 0 10 -4 10 -9z m1897 -18 c-13 -3 -15 -8 -8 -17 7 -8 4 -15
-9 -24 -18 -11 -19 -9 -17 10 2 26 15 38 37 37 10 -1 9 -3 -3 -6z m1850 0
c-13 -3 -15 -8 -8 -17 7 -8 4 -15 -9 -24 -18 -11 -19 -9 -17 10 2 26 15 38 37
37 10 -1 9 -3 -3 -6z m-1963 -19 c3 -8 2 -12 -4 -9 -6 3 -10 10 -10 16 0 14 7
11 14 -7z m-189 -4 c3 -5 1 -10 -4 -10 -6 0 -11 5 -11 10 0 6 2 10 4 10 3 0 8
-4 11 -10z m1848 -20 c-4 -17 -2 -19 13 -13 16 6 17 4 7 -9 -7 -8 -10 -18 -6
-22 4 -3 7 -15 8 -26 1 -15 -5 -20 -22 -20 -19 0 -23 5 -23 29 0 29 15 81 24
81 2 0 2 -9 -1 -20z m1849 -2 c-3 -14 -2 -19 6 -14 7 4 12 2 12 -3 0 -6 -6
-11 -12 -11 -9 0 -9 -3 1 -9 8 -5 15 -19 16 -30 1 -16 -4 -21 -22 -21 -29 0
-34 31 -13 86 12 30 20 31 12 2z m-3397 -48 c9 0 12 -6 9 -15 -3 -8 -11 -13
-17 -12 -23 4 -19 -33 5 -42 13 -6 16 -10 8 -10 -34 -1 -43 15 -35 65 5 27 10
41 12 32 3 -10 11 -18 18 -18z m1846 0 c18 0 8 -28 -12 -33 -18 -5 -20 -2 -15
16 3 12 6 29 7 37 1 11 3 10 6 -2 2 -10 9 -18 14 -18z m-1951 -36 c0 -8 -4
-12 -10 -9 -5 3 -10 13 -10 21 0 8 5 12 10 9 6 -3 10 -13 10 -21z m1661 -44
c6 0 8 -4 5 -9 -4 -5 -2 -20 3 -32 6 -18 4 -27 -8 -36 -10 -8 -12 -12 -3 -13
6 0 12 -5 12 -11 0 -8 -5 -8 -15 1 -18 15 -21 54 -2 44 10 -6 10 -4 0 7 -7 7
-12 29 -12 49 1 19 3 27 6 18 2 -10 9 -18 14 -18z m304 2 c-6 -7 -45 9 -45 18
0 4 11 3 24 -3 14 -7 23 -13 21 -15z m1549 -4 c7 -5 6 -8 -3 -8 -10 0 -11 -3
-2 -14 7 -8 8 -17 3 -20 -15 -9 -22 5 -21 43 0 20 3 29 6 21 3 -8 11 -18 17
-22z m-3737 -20 c-3 -8 -6 -5 -6 6 -1 11 2 17 5 13 3 -3 4 -12 1 -19z m223
-24 c0 -8 -4 -12 -10 -9 -5 3 -10 10 -10 16 0 5 5 9 10 9 6 0 10 -7 10 -16z
m93 2 c6 -15 -1 -26 -15 -26 -4 0 -8 9 -8 20 0 23 15 27 23 6z m1851 -17 c-10
-16 -24 -9 -24 12 0 18 2 19 15 9 8 -7 12 -16 9 -21z m1582 -2 c4 -4 0 -7 -9
-7 -20 0 -22 -11 -4 -30 10 -12 9 -12 -5 -1 -22 16 -24 50 -3 47 8 -1 18 -5
21 -9z m-5306 -1 c0 -3 -4 -8 -10 -11 -5 -3 -10 -1 -10 4 0 6 5 11 10 11 6 0
10 -2 10 -4z m1879 -53 c9 -19 9 -29 2 -31 -6 -2 -11 -10 -11 -18 0 -8 6 -11
15 -8 11 5 13 2 9 -10 -8 -21 -34 -20 -36 2 -9 96 -2 116 21 65z m1850 -3 c6
-18 6 -30 0 -30 -5 0 -9 -7 -9 -16 0 -8 5 -12 10 -9 6 3 10 -1 10 -9 0 -31
-29 -16 -34 17 -11 78 2 105 23 47z m-2156 -21 c3 -13 1 -19 -6 -16 -15 5 -22
37 -9 37 5 0 12 -9 15 -21z m1881 12 c3 -5 -3 -11 -14 -14 -13 -3 -20 0 -20 9
0 15 26 19 34 5z m1850 0 c3 -5 -3 -11 -14 -14 -13 -3 -20 0 -20 9 0 15 26 19
34 5z m-3524 -33 c0 -19 -2 -20 -10 -8 -13 19 -13 30 0 30 6 0 10 -10 10 -22z
m-210 -18 c0 -5 -2 -10 -4 -10 -3 0 -8 5 -11 10 -3 6 -1 10 4 10 6 0 11 -4 11
-10z m1885 -30 c3 -5 -1 -10 -9 -10 -9 0 -16 -5 -16 -12 0 -6 -3 -9 -6 -5 -9
8 3 37 15 37 5 0 13 -4 16 -10z m1850 0 c3 -5 -1 -10 -9 -10 -9 0 -16 -5 -16
-12 0 -6 -3 -9 -6 -5 -9 8 3 37 15 37 5 0 13 -4 16 -10z m-3526 -42 c0 -31 -3
-37 -8 -24 -7 18 -3 66 5 66 2 0 4 -19 3 -42z m97 7 c-2 -7 1 -18 7 -24 8 -8
8 -11 -1 -11 -7 0 -17 -10 -22 -22 -8 -22 -9 -22 -9 -2 -1 11 4 25 11 32 8 8
9 12 1 12 -6 0 -9 9 -6 20 3 11 10 17 15 14 5 -3 7 -12 4 -19z m1850 0 c-2 -7
1 -18 7 -24 8 -8 8 -11 -1 -11 -7 0 -17 -10 -22 -22 -7 -18 -8 -15 -5 17 2 22
4 46 4 53 1 7 6 10 12 7 6 -4 8 -13 5 -20z m-271 -61 c0 -20 -5 -34 -12 -34
-7 0 -13 9 -13 20 0 11 5 20 12 20 9 0 9 3 0 12 -7 7 -12 19 -12 27 0 12 2 13
13 2 6 -6 12 -28 12 -47z m1850 0 c0 -20 -5 -34 -12 -34 -7 0 -13 9 -13 20 0
11 5 20 12 20 9 0 9 3 0 12 -7 7 -12 19 -12 27 0 12 2 13 13 2 6 -6 12 -28 12
-47z m-3735 -6 c0 -5 -4 -8 -10 -8 -5 0 -10 10 -10 23 0 18 2 19 10 7 5 -8 10
-18 10 -22z m320 12 c0 -5 -5 -10 -11 -10 -5 0 -7 5 -4 10 3 6 8 10 11 10 2 0
4 -4 4 -10z m1850 0 c0 -5 -4 -10 -10 -10 -5 0 -10 5 -10 10 0 6 5 10 10 10 6
0 10 -4 10 -10z m-1854 -67 c-4 -4 -11 -1 -16 7 -16 25 -11 35 7 17 9 -9 13
-20 9 -24z m1850 0 c-4 -4 -11 -1 -16 7 -16 25 -11 35 7 17 9 -9 13 -20 9 -24z
m-2169 -25 c-3 -8 -6 -5 -6 6 -1 11 2 17 5 13 3 -3 4 -12 1 -19z m1888 9 c11
-11 10 -16 -6 -25 -17 -11 -19 -9 -19 13 0 28 6 31 25 12z m1850 -1 c12 -12
12 -15 0 -20 -17 -6 -20 -37 -5 -52 10 -10 -2 -64 -14 -64 -2 0 -5 34 -5 75 0
41 2 75 5 75 3 0 12 -6 19 -14z m-3415 -26 c0 -5 -5 -10 -11 -10 -5 0 -7 5 -4
10 3 6 8 10 11 10 2 0 4 -4 4 -10z m1850 0 c0 -5 -5 -10 -11 -10 -5 0 -7 5 -4
10 3 6 8 10 11 10 2 0 4 -4 4 -10z m-2170 -20 c0 -5 -5 -10 -11 -10 -5 0 -7 5
-4 10 3 6 8 10 11 10 2 0 4 -4 4 -10z m1883 -67 c-9 -13 -17 -23 -19 -23 -2 0
-3 20 -2 44 2 42 3 42 19 22 15 -18 15 -23 2 -43z m-1553 53 c0 -2 -7 -9 -15
-16 -12 -10 -15 -10 -15 4 0 9 7 16 15 16 8 0 15 -2 15 -4z m1850 0 c0 -2 -7
-9 -15 -16 -12 -10 -15 -10 -15 4 0 9 7 16 15 16 8 0 15 -2 15 -4z m-2185 -56
c3 -5 1 -10 -4 -10 -6 0 -11 5 -11 10 0 6 2 10 4 10 3 0 8 -4 11 -10z m2169
-5 c3 -8 1 -15 -4 -15 -6 0 -10 7 -10 15 0 8 2 15 4 15 2 0 6 -7 10 -15z
m-3754 -5 c0 -5 -5 -10 -11 -10 -5 0 -7 5 -4 10 3 6 8 10 11 10 2 0 4 -4 4
-10z m3507 4 c-3 -3 -12 -4 -19 -1 -8 3 -5 6 6 6 11 1 17 -2 13 -5z m1850 0
c-3 -3 -12 -4 -19 -1 -8 3 -5 6 6 6 11 1 17 -2 13 -5z m-1874 -35 c-6 -6 -9
-18 -6 -25 3 -8 0 -14 -6 -14 -8 0 -9 -6 -2 -18 6 -10 7 -29 4 -41 -4 -16 -2
-20 10 -15 12 4 14 1 10 -15 -6 -23 -37 -28 -49 -9 -4 6 -3 8 2 5 6 -3 10 14
10 41 1 92 3 102 21 102 13 0 14 -3 6 -11z m1850 0 c-6 -6 -9 -18 -6 -25 3 -8
0 -14 -6 -14 -9 0 -9 -5 -1 -21 8 -14 8 -24 1 -33 -12 -14 -5 -26 12 -22 7 2
9 1 5 -1 -4 -2 -4 -11 -1 -19 4 -10 -2 -14 -21 -14 -14 0 -26 5 -26 11 0 5 4
8 9 5 4 -3 7 13 5 35 -4 62 6 109 24 109 12 0 13 -3 5 -11z m-1563 -3 c0 -3
-4 -8 -10 -11 -5 -3 -10 -1 -10 4 0 6 5 11 10 11 6 0 10 -2 10 -4z m-2180 -10
c0 -3 -4 -8 -10 -11 -5 -3 -10 -1 -10 4 0 6 5 11 10 11 6 0 10 -2 10 -4z m334
-31 c-4 -9 0 -15 7 -16 8 0 5 -4 -6 -9 -31 -13 -39 -11 -24 6 10 13 10 17 -2
25 -11 7 -9 9 8 9 16 0 21 -4 17 -15z m1852 -2 c-1 -18 -14 -33 -30 -33 -5 0
-4 6 3 13 8 10 7 17 -1 25 -9 9 -7 12 9 12 14 0 20 -6 19 -17z m-2186 -23 c0
-5 -7 -7 -15 -4 -8 4 -12 10 -9 15 6 11 24 2 24 -11z m14 -73 c7 -6 4 -7 -6
-3 -14 4 -18 0 -18 -16 0 -13 -4 -18 -9 -12 -5 5 -6 24 -4 43 5 30 7 31 16 15
6 -11 15 -23 21 -27z m321 33 c3 -5 1 -10 -4 -10 -6 0 -11 5 -11 10 0 6 2 10
4 10 3 0 8 -4 11 -10z m1850 0 c3 -5 -1 -10 -10 -10 -9 0 -13 5 -10 10 3 6 8
10 10 10 2 0 7 -4 10 -10z m-305 -80 c-12 -8 -13 -13 -3 -29 7 -12 9 -22 3
-26 -11 -7 -25 59 -15 75 5 9 10 9 19 0 8 -8 7 -13 -4 -20z m45 20 c3 -5 -1
-10 -9 -10 -9 0 -16 5 -16 10 0 6 4 10 9 10 6 0 13 -4 16 -10z m1803 -20 c-9
-14 -9 -22 1 -33 7 -10 8 -17 2 -21 -6 -4 -13 9 -16 28 -7 37 0 60 15 51 6 -4
5 -14 -2 -25z m42 20 c0 -5 -4 -10 -10 -10 -5 0 -10 5 -10 10 0 6 5 10 10 10
6 0 10 -4 10 -10z m-3424 -12 c4 -7 4 -10 -1 -6 -4 4 -14 3 -22 -3 -13 -11
-19 2 -6 14 10 11 21 8 29 -5z m1834 -3 c-7 -8 -17 -15 -22 -15 -6 0 -5 7 2
15 7 8 17 15 22 15 6 0 5 -7 -2 -15z m-2194 -44 c-4 -6 -13 -11 -19 -11 -8 0
-7 3 2 9 8 5 10 14 6 22 -6 11 -5 11 5 2 7 -6 9 -16 6 -22z m334 9 c0 -5 -5
-10 -11 -10 -5 0 -7 5 -4 10 3 6 8 10 11 10 2 0 4 -4 4 -10z m1850 0 c0 -5 -4
-10 -10 -10 -5 0 -10 5 -10 10 0 6 5 10 10 10 6 0 10 -4 10 -10z m-2145 -52
c5 -4 -4 -6 -20 -4 -41 5 -43 6 -20 15 11 5 22 6 25 2 3 -3 9 -9 15 -13z
m1854 -56 c-4 -17 -3 -35 2 -38 13 -8 11 -42 -3 -47 -8 -3 -6 -6 5 -6 20 -1
21 -5 5 -31 -10 -16 -10 -24 0 -40 17 -28 15 -50 -3 -26 -12 16 -15 17 -20 4
-3 -8 -5 -20 -3 -26 2 -5 1 -11 -2 -12 -11 -3 -40 13 -40 22 0 5 5 6 10 3 6
-3 10 1 10 9 0 9 7 16 15 16 11 0 14 7 11 23 -14 66 -15 88 -6 82 6 -3 10 -1
10 4 0 6 -4 11 -9 11 -5 0 -9 27 -8 59 2 54 3 58 18 43 11 -13 14 -26 8 -50z
m31 58 c-19 -13 -30 -13 -30 0 0 6 10 10 23 10 18 0 19 -2 7 -10z m1822 -34
c-9 -15 -9 -57 0 -62 12 -7 10 -44 -2 -44 -5 0 -10 -4 -10 -10 0 -5 7 -7 15
-4 17 7 21 -11 4 -22 -11 -6 -9 -31 6 -69 7 -16 6 -18 -6 -7 -20 19 -29 15
-29 -14 0 -14 -4 -23 -10 -19 -17 10 -12 55 6 55 11 0 14 5 9 18 -10 26 -13
92 -4 86 5 -3 9 0 9 5 0 6 -4 11 -9 11 -5 0 -9 27 -8 59 2 55 3 58 18 43 9
-10 14 -21 11 -26z m31 38 c-7 -3 -9 -13 -5 -22 5 -16 5 -16 -11 0 -23 22 -21
28 6 27 12 0 17 -3 10 -5z m-1848 -24 c3 -5 1 -10 -4 -10 -6 0 -11 5 -11 10 0
6 2 10 4 10 3 0 8 -4 11 -10z m-1915 -19 c0 -6 -4 -13 -10 -16 -5 -3 -10 1
-10 9 0 9 5 16 10 16 6 0 10 -4 10 -9z m340 -25 c8 -3 5 -4 -7 -2 -12 2 -24
-1 -27 -8 -2 -6 -5 0 -5 13 -1 17 2 21 12 14 6 -6 19 -13 27 -17z m1565 14 c3
-5 1 -10 -4 -10 -6 0 -11 5 -11 10 0 6 2 10 4 10 3 0 8 -4 11 -10z m285 -14
c8 -3 5 -4 -7 -2 -12 2 -24 -1 -27 -8 -2 -6 -5 0 -5 13 -1 17 2 21 12 14 6 -6
19 -13 27 -17z m1565 14 c3 -5 1 -10 -4 -10 -6 0 -11 5 -11 10 0 6 2 10 4 10
3 0 8 -4 11 -10z m-1695 -30 c0 -5 -2 -10 -4 -10 -3 0 -8 5 -11 10 -3 6 -1 10
4 10 6 0 11 -4 11 -10z m-2070 -10 c0 -5 -2 -10 -4 -10 -3 0 -8 5 -11 10 -3 6
-1 10 4 10 6 0 11 -4 11 -10z m340 -31 c0 -6 -5 -19 -10 -30 -8 -14 -7 -19 1
-19 8 0 9 -4 0 -13 -6 -8 -7 -18 -3 -22 4 -5 1 -5 -6 -1 -7 5 -11 14 -8 22 3
8 1 14 -5 14 -6 0 -6 6 -1 18 5 9 7 23 5 30 -3 6 2 12 11 12 9 0 16 -5 16 -11z
m1850 -2 c0 -7 -6 -19 -12 -25 -10 -10 -10 -15 1 -21 9 -6 10 -11 2 -15 -6 -4
-8 -12 -5 -18 5 -7 2 -8 -5 -4 -7 5 -10 14 -7 22 3 8 2 14 -3 14 -4 0 -6 14
-3 30 4 29 32 44 32 17z m-2192 -16 c10 -6 9 -10 -7 -14 -14 -3 -21 0 -21 9 0
16 9 18 28 5z m12 -88 c0 -13 5 -23 10 -23 6 0 10 -8 10 -17 0 -15 -3 -14 -18
5 -19 25 -32 20 -32 -12 0 -17 -2 -18 -10 -6 -8 13 -10 13 -10 -2 0 -33 -15
-25 -17 9 -1 24 2 33 11 30 7 -3 18 4 24 14 7 10 8 19 3 19 -5 0 -7 9 -4 20 5
19 6 20 19 3 7 -10 14 -28 14 -40z m-695 8 c3 -5 1 -12 -5 -16 -5 -3 -10 1
-10 9 0 18 6 21 15 7z m520 0 c3 -5 1 -12 -5 -16 -5 -3 -10 1 -10 9 0 18 6 21
15 7z m-872 -35 c-3 -4 -9 -2 -14 5 -13 22 -11 31 5 17 8 -7 12 -17 9 -22z
m373 7 c-10 -10 -19 5 -10 18 6 11 8 11 12 0 2 -7 1 -15 -2 -18z m118 -2 c-7
-8 -35 9 -29 19 4 6 11 5 20 -3 7 -6 11 -14 9 -16z m56 14 c0 -8 -7 -15 -15
-15 -26 0 -18 20 13 29 1 1 2 -6 2 -14z m194 -26 c11 -10 17 -22 13 -25 -4 -4
-19 5 -33 19 -26 26 -51 37 -39 17 3 -5 2 -10 -4 -10 -17 0 -24 22 -10 30 14
9 42 -3 73 -31z m162 4 l-15 -28 -1 28 c0 16 4 26 10 22 6 -3 10 -1 10 6 0 7
3 10 6 7 3 -4 -1 -19 -10 -35z m179 27 c3 -5 1 -10 -4 -10 -6 0 -11 5 -11 10
0 6 2 10 4 10 3 0 8 -4 11 -10z m-985 -10 c0 -5 -2 -10 -4 -10 -3 0 -8 5 -11
10 -3 6 -1 10 4 10 6 0 11 -4 11 -10z m90 0 c0 -5 -4 -10 -10 -10 -5 0 -10 5
-10 10 0 6 5 10 10 10 6 0 10 -4 10 -10z m130 -11 c0 -5 -4 -9 -10 -9 -5 0
-10 7 -10 16 0 8 5 12 10 9 6 -3 10 -10 10 -16z m80 -9 c-6 -12 -14 -19 -17
-17 -2 3 1 15 7 27 6 12 14 19 17 17 2 -3 -1 -15 -7 -27z m180 23 c-1 -5 -8
-19 -16 -33 -8 -14 -13 -17 -10 -7 3 10 6 25 6 33 0 8 5 14 10 14 6 0 10 -3
10 -7z m44 -8 c-5 -12 -34 -17 -34 -5 0 11 9 17 24 17 8 0 12 -6 10 -12z m162
6 c11 9 14 6 14 -20 0 -17 -4 -31 -10 -31 -5 0 -10 7 -10 16 0 8 -4 13 -9 9
-13 -7 -24 12 -15 27 6 9 9 9 12 0 3 -10 7 -10 18 -1z m66 -8 c8 -10 18 -25
22 -33 4 -8 -1 -4 -13 10 -18 23 -20 23 -27 7 -5 -14 -9 -15 -14 -6 -9 13 -2
39 10 39 4 0 14 -8 22 -17z m-205 -30 c-3 -10 -5 -4 -5 12 0 17 2 24 5 18 2
-7 2 -21 0 -30z m323 22 c0 -8 -4 -15 -10 -15 -5 0 -10 7 -10 15 0 8 5 15 10
15 6 0 10 -7 10 -15z m1280 -17 c0 -12 -10 -9 -26 6 -20 21 -17 28 6 14 11 -7
20 -16 20 -20z m426 10 c10 -12 13 -18 6 -14 -8 5 -18 1 -26 -10 -11 -15 -12
-13 -8 14 2 18 5 32 7 32 1 0 10 -10 21 -22z m114 11 c0 -6 7 -9 15 -5 17 6
21 -19 5 -29 -5 -3 -10 -1 -10 4 0 6 -4 11 -10 11 -5 0 -10 -6 -10 -14 0 -13
-4 -13 -27 -1 -18 10 -29 11 -34 4 -4 -7 -9 -4 -12 6 -4 9 -3 13 3 10 6 -3 10
-2 10 4 0 11 19 9 39 -3 11 -7 13 -5 8 7 -4 11 -1 17 8 17 8 0 15 -5 15 -11z
m1304 -21 c-3 -5 -12 -2 -20 6 -20 21 -17 28 5 14 11 -7 17 -16 15 -20z m424
20 c13 -13 52 -19 52 -7 0 9 20 6 39 -5 11 -7 13 -5 8 7 -4 11 -1 17 8 17 8 0
15 -5 15 -11 0 -6 7 -9 15 -5 9 3 15 0 15 -8 0 -20 -12 -27 -27 -15 -10 9 -13
8 -13 -5 0 -15 -3 -15 -30 -1 -28 14 -30 14 -31 -2 -1 -17 -2 -17 -6 -1 -5 21
-43 20 -59 -1 -9 -12 -11 -8 -10 17 1 35 6 38 24 20z m-1945 -20 c6 -21 5 -22
-7 -5 -13 16 -14 16 -20 1 -4 -9 -9 -14 -12 -11 -10 10 4 37 20 37 7 0 16 -10
19 -22z m287 13 c0 -17 -18 -21 -24 -6 -3 9 0 15 9 15 8 0 15 -4 15 -9z m135
-1 c-3 -5 -11 -10 -16 -10 -6 0 -7 5 -4 10 3 6 11 10 16 10 6 0 7 -4 4 -10z
m432 -12 c-3 -8 -6 -5 -6 6 -1 11 2 17 5 13 3 -3 4 -12 1 -19z m996 0 c6 -21
5 -22 -7 -5 -13 16 -14 16 -20 1 -4 -9 -9 -14 -12 -11 -10 10 4 37 20 37 7 0
16 -10 19 -22z m27 12 c0 -5 -4 -10 -10 -10 -5 0 -10 5 -10 10 0 6 5 10 10 10
6 0 10 -4 10 -10z m258 -2 c-6 -18 -28 -21 -28 -4 0 9 7 16 16 16 9 0 14 -5
12 -12z m132 2 c0 -5 -4 -10 -10 -10 -5 0 -10 5 -10 10 0 6 5 10 10 10 6 0 10
-4 10 -10z m-3900 -32 c0 -5 -7 -3 -15 6 -8 8 -15 18 -15 22 0 3 7 1 15 -6 8
-7 15 -17 15 -22z m3540 22 c0 -5 -2 -10 -4 -10 -3 0 -8 5 -11 10 -3 6 -1 10
4 10 6 0 11 -4 11 -10z m-1510 -20 c0 -5 -4 -10 -10 -10 -5 0 -10 5 -10 10 0
6 5 10 10 10 6 0 10 -4 10 -10z m1845 0 c3 -5 1 -10 -4 -10 -6 0 -11 5 -11 10
0 6 2 10 4 10 3 0 8 -4 11 -10z m-3785 -26 c0 -8 -5 -12 -10 -9 -6 4 -8 11 -5
16 9 14 15 11 15 -7z m2157 -26 c-3 -8 -6 -5 -6 6 -1 11 2 17 5 13 3 -3 4 -12
1 -19z m-2022 -8 c3 -5 2 -10 -4 -10 -5 0 -13 5 -16 10 -3 6 -2 10 4 10 5 0
13 -4 16 -10z"/>
        <path d="M2832 3061 c-7 -19 -12 -45 -12 -58 0 -17 -5 -23 -17 -21 -12 2 -18
-4 -19 -17 0 -11 -6 -33 -14 -50 -7 -16 -12 -36 -11 -42 1 -7 -3 -13 -9 -13
-5 0 -10 -6 -10 -14 0 -7 -7 -19 -16 -26 -17 -15 -45 -75 -48 -103 0 -10 -6
-21 -11 -25 -18 -12 -35 -62 -35 -101 0 -21 -6 -57 -14 -79 -13 -37 -13 -41 2
-48 9 -4 22 -6 27 -4 6 2 44 4 85 5 41 1 84 3 95 4 19 1 20 8 19 154 -1 83 -2
157 -4 162 -1 6 -1 15 0 20 3 12 10 94 14 156 1 26 0 66 -3 90 l-7 44 -12 -34z"/>
        <path d="M4679 3053 c-7 -21 -13 -45 -13 -53 -1 -8 -8 -15 -16 -15 -8 0 -15
-9 -16 -20 -2 -31 -15 -65 -26 -65 -5 0 -8 -6 -7 -12 3 -18 -19 -68 -29 -68
-10 0 -47 -86 -47 -108 0 -7 -5 -16 -10 -20 -22 -16 -37 -58 -37 -100 1 -24
-5 -60 -13 -79 -14 -33 -14 -37 2 -48 10 -7 22 -11 27 -7 5 3 46 6 90 8 45 1
88 2 96 3 13 1 15 24 14 154 -1 83 -3 157 -4 162 -1 6 -2 14 -1 18 11 61 16
275 7 284 -2 2 -10 -13 -17 -34z"/>
    </g>
</svg>
